<svg width="199" height="57" fill="none" xmlns="http://www.w3.org/2000/svg"><g opacity=".2" fill="#000"><path d="M0 22v5h4v-5H0zM20 8c-3 0-5 1-6 3V0h-4v27h4v-9c0-4 2-7 5-7 4 0 5 3 5 6v10h4V16c0-5-3-8-8-8zM46 8h-8V2h-4v6h-3v4h3v10c0 3 2 5 5 5h7v-4h-6c-2 0-2 0-2-2v-9h8V8zM71 8c-3 0-5 1-6 3-1-2-3-3-6-3-2 0-4 1-5 3V8h-4v19h4V17c0-3 2-6 4-6 3 0 4 2 4 5v11h4V17c0-4 2-6 4-6 3 0 4 2 4 5v11h4V15c0-4-3-7-7-7zM83 22c0 3 1 5 5 5h3v-4h-3c-1 0-2 0-2-2V0h-3v22zM50 34c-2-2-4-3-7-3-5 0-9 4-9 9 0 6 4 10 9 10 3 0 5-1 7-3v3h4V31h-4v3zm-6 13c-4 0-7-3-7-7 0-3 3-6 7-6s6 3 6 6c0 4-2 7-6 7zM77 38c-1-4-5-7-10-7-6 0-10 4-10 9 0 6 4 10 10 10 5 0 9-3 10-7h-4c-1 2-3 4-6 4-4 0-6-3-6-7 0-3 2-6 6-6 3 0 5 2 6 4h4zM95 34c-1-2-3-3-6-3-6 0-10 4-10 9 0 6 4 10 10 10 3 0 5-1 6-3v3h4V31h-4v3zm-6 13c-4 0-6-3-6-7 0-3 2-6 6-6s6 3 6 6c0 4-2 7-6 7zM119 34c-2-2-4-3-7-3-5 0-9 4-9 9 0 6 4 10 9 10 3 0 5-1 7-3v3h3V23h-3v11zm-6 13c-4 0-7-3-7-7 0-3 3-6 7-6 3 0 6 3 6 6 0 4-3 7-6 7zM136 31c-6 0-10 4-10 9 0 6 4 10 10 10 4 0 7-2 9-6h-4c-1 2-3 3-5 3-4 0-6-2-6-5h15c0-6-3-11-9-11zm-1 3c3 0 6 2 6 5h-11c0-3 3-5 5-5zM170 31c-3 0-5 1-6 3-1-2-3-3-6-3s-4 1-6 3v-3h-3v19h3V40c0-3 2-6 5-6s4 2 4 5v11h4V40c0-4 2-6 4-6 3 0 4 2 4 5v11h4V38c0-4-3-7-7-7zM189 47l-6-16h-4l9 20c-1 2-2 2-3 2h-5v4h5c3 0 5-1 6-5l8-21h-4l-6 16z"/></g></svg>